<?xml version="1.0" standalone="no"?>
<!DOCTYPE svg PUBLIC "-//W3C//DTD SVG 20010904//EN"
 "http://www.w3.org/TR/2001/REC-SVG-20010904/DTD/svg10.dtd">
<svg version="1.0" xmlns="http://www.w3.org/2000/svg"
 width="300.000000pt" height="300.000000pt" viewBox="0 0 300.000000 300.000000"
 preserveAspectRatio="xMidYMid meet">

<g transform="translate(0.000000,300.000000) scale(0.100000,-0.100000)"
fill="#000000" stroke="none">
<path d="M623 2572 l-153 -3 0 -184 c0 -102 2 -185 4 -185 1 0 33 20 70 44 36
24 109 63 161 87 l95 43 0 97 c0 69 -4 98 -12 100 -7 2 -82 3 -165 1z"/>
<path d="M2240 2497 l0 -73 71 -23 c39 -12 113 -44 165 -70 l94 -47 0 143 0
143 -165 0 -165 0 0 -73z"/>
<path d="M1205 2430 l-40 -7 40 -1 c22 0 60 3 85 7 l45 8 -45 0 c-25 0 -63 -3
-85 -7z"/>
<path d="M1320 2420 c-14 -4 24 -6 85 -3 61 3 112 7 114 9 9 8 -175 2 -199 -6z"/>
<path d="M1910 2420 c-80 -6 -77 -6 60 -9 200 -3 277 -17 120 -22 l-115 -3
165 -6 c91 -3 174 -9 185 -13 11 -4 6 -1 -11 7 -73 34 -269 57 -404 46z"/>
<path d="M1138 2413 c7 -3 16 -2 19 1 4 3 -2 6 -13 5 -11 0 -14 -3 -6 -6z"/>
<path d="M1698 2413 c23 -2 61 -2 85 0 23 2 4 4 -43 4 -47 0 -66 -2 -42 -4z"/>
<path d="M1428 2403 c23 -2 59 -2 80 0 20 2 1 4 -43 4 -44 0 -61 -2 -37 -4z"/>
<path d="M965 2375 c-40 -14 -40 -14 -5 -8 19 3 42 9 50 14 22 12 1 9 -45 -6z"/>
<path d="M1057 2358 c35 -6 58 -6 70 1 14 8 1 10 -52 10 l-70 -1 52 -10z"/>
<path d="M790 2316 c-95 -37 -264 -121 -325 -161 -22 -15 -31 -23 -20 -19 11
4 31 6 45 6 19 -1 21 1 7 6 -22 9 132 92 283 152 58 23 107 44 109 46 10 10
-20 1 -99 -30z"/>
<path d="M923 2323 c9 -2 23 -2 30 0 6 3 -1 5 -18 5 -16 0 -22 -2 -12 -5z"/>
<path d="M1918 2323 c12 -2 30 -2 40 0 9 3 -1 5 -23 4 -22 0 -30 -2 -17 -4z"/>
<path d="M1698 2313 c12 -2 30 -2 40 0 9 3 -1 5 -23 4 -22 0 -30 -2 -17 -4z"/>
<path d="M2318 2313 c6 -2 18 -2 25 0 6 3 1 5 -13 5 -14 0 -19 -2 -12 -5z"/>
<path d="M2440 2316 c0 -3 25 -19 55 -36 31 -18 52 -36 49 -42 -4 -6 -1 -9 7
-6 8 3 31 -6 52 -19 58 -37 43 -18 -20 25 -60 40 -143 86 -143 78z"/>
<path d="M2408 2303 c7 -3 16 -2 19 1 4 3 -2 6 -13 5 -11 0 -14 -3 -6 -6z"/>
<path d="M1293 2283 c15 -2 37 -2 50 0 12 2 0 4 -28 4 -27 0 -38 -2 -22 -4z"/>
<path d="M1853 2283 c9 -2 23 -2 30 0 6 3 -1 5 -18 5 -16 0 -22 -2 -12 -5z"/>
<path d="M1443 2273 c15 -2 39 -2 55 0 15 2 2 4 -28 4 -30 0 -43 -2 -27 -4z"/>
<path d="M1588 2273 c28 -2 76 -2 105 0 28 2 5 3 -53 3 -58 0 -81 -1 -52 -3z"/>
<path d="M2330 2276 c0 -2 7 -7 16 -10 8 -3 12 -2 9 4 -6 10 -25 14 -25 6z"/>
<path d="M2378 2263 c6 -2 18 -2 25 0 6 3 1 5 -13 5 -14 0 -19 -2 -12 -5z"/>
<path d="M2448 2253 c7 -3 16 -2 19 1 4 3 -2 6 -13 5 -11 0 -14 -3 -6 -6z"/>
<path d="M2498 2243 c7 -3 16 -2 19 1 4 3 -2 6 -13 5 -11 0 -14 -3 -6 -6z"/>
<path d="M2403 2203 c9 -2 25 -2 35 0 9 3 1 5 -18 5 -19 0 -27 -2 -17 -5z"/>
<path d="M2488 2193 c6 -2 18 -2 25 0 6 3 1 5 -13 5 -14 0 -19 -2 -12 -5z"/>
<path d="M2651 2177 c2 -1 15 -11 29 -22 l25 -20 -19 23 c-11 12 -24 22 -29
22 -6 0 -8 -1 -6 -3z"/>
<path d="M2465 2145 c99 -17 116 -18 95 -6 -8 5 -51 11 -95 14 l-80 6 80 -14z"/>
<path d="M898 2143 c18 -2 45 -2 60 0 15 2 0 4 -33 4 -33 0 -45 -2 -27 -4z"/>
<path d="M1948 2143 c7 -3 16 -2 19 1 4 3 -2 6 -13 5 -11 0 -14 -3 -6 -6z"/>
<path d="M1518 2133 c12 -2 30 -2 40 0 9 3 -1 5 -23 4 -22 0 -30 -2 -17 -4z"/>
<path d="M1813 2133 c9 -2 23 -2 30 0 6 3 -1 5 -18 5 -16 0 -22 -2 -12 -5z"/>
<path d="M2580 2132 c0 -4 38 -16 85 -26 82 -18 116 -38 121 -71 3 -19 -11
-27 -56 -36 l-35 -7 33 -1 c41 -1 72 14 72 37 0 28 -43 72 -75 78 -16 2 -53
11 -82 19 -59 17 -63 18 -63 7z"/>
<path d="M1438 2123 c12 -2 30 -2 40 0 9 3 -1 5 -23 4 -22 0 -30 -2 -17 -4z"/>
<path d="M1728 2123 c7 -3 16 -2 19 1 4 3 -2 6 -13 5 -11 0 -14 -3 -6 -6z"/>
<path d="M2148 2123 c34 -2 90 -2 125 0 34 2 6 3 -63 3 -69 0 -97 -1 -62 -3z"/>
<path d="M354 2082 c-56 -44 -104 -98 -104 -115 0 -7 10 3 21 20 11 18 42 50
68 70 l47 38 100 -3 101 -3 -2 -43 c-2 -41 -1 -42 31 -44 42 -3 68 22 60 59
-4 23 -2 26 17 23 18 -4 18 -3 4 4 -10 4 -77 9 -150 10 -73 2 -134 8 -138 13
-3 6 -28 -7 -55 -29z m300 -8 c9 -8 16 -19 16 -24 0 -5 -7 -16 -16 -24 -8 -9
-19 -16 -24 -16 -11 0 -40 29 -40 40 0 11 29 40 40 40 5 0 16 -7 24 -16z"/>
<path d="M1343 2113 c15 -2 37 -2 50 0 12 2 0 4 -28 4 -27 0 -38 -2 -22 -4z"/>
<path d="M1638 2113 c7 -3 16 -2 19 1 4 3 -2 6 -13 5 -11 0 -14 -3 -6 -6z"/>
<path d="M1988 2113 c6 -2 18 -2 25 0 6 3 1 5 -13 5 -14 0 -19 -2 -12 -5z"/>
<path d="M2378 2113 c12 -2 30 -2 40 0 9 3 -1 5 -23 4 -22 0 -30 -2 -17 -4z"/>
<path d="M1228 2103 c18 -2 45 -2 60 0 15 2 0 4 -33 4 -33 0 -45 -2 -27 -4z"/>
<path d="M1538 2103 c6 -2 18 -2 25 0 6 3 1 5 -13 5 -14 0 -19 -2 -12 -5z"/>
<path d="M1888 2103 c6 -2 18 -2 25 0 6 3 1 5 -13 5 -14 0 -19 -2 -12 -5z"/>
<path d="M2478 2103 c6 -2 18 -2 25 0 6 3 1 5 -13 5 -14 0 -19 -2 -12 -5z"/>
<path d="M973 2093 c43 -2 110 -2 150 0 40 1 5 3 -78 3 -82 0 -115 -2 -72 -3z"/>
<path d="M1458 2093 c6 -2 18 -2 25 0 6 3 1 5 -13 5 -14 0 -19 -2 -12 -5z"/>
<path d="M1795 2090 c11 -5 38 -8 60 -8 l40 0 -40 9 c-22 4 -49 8 -60 8 l-20
0 20 -9z"/>
<path d="M2043 2093 c9 -2 25 -2 35 0 9 3 1 5 -18 5 -19 0 -27 -2 -17 -5z"/>
<path d="M2143 2093 c9 -2 23 -2 30 0 6 3 -1 5 -18 5 -16 0 -22 -2 -12 -5z"/>
<path d="M2386 2084 c-19 -18 -21 -55 -4 -72 18 -18 53 -15 71 6 22 24 21 45
-1 65 -23 21 -46 22 -66 1z m59 -14 c18 -20 18 -21 -1 -41 -23 -23 -50 -17
-59 12 -7 22 10 49 30 49 6 0 20 -9 30 -20z"/>
<path d="M2548 2093 c7 -3 16 -2 19 1 4 3 -2 6 -13 5 -11 0 -14 -3 -6 -6z"/>
<path d="M1408 2083 c7 -3 16 -2 19 1 4 3 -2 6 -13 5 -11 0 -14 -3 -6 -6z"/>
<path d="M1700 2078 c0 -7 -14 -8 -37 -5 -21 4 -43 3 -50 -1 -6 -4 -13 -34
-15 -67 -3 -52 -6 -60 -24 -63 -18 -3 -20 1 -16 30 3 18 10 36 16 40 7 5 4 8
-6 8 -22 0 -23 19 -2 27 22 8 -2 23 -38 23 -27 0 -33 -8 -28 -39 1 -8 -4 -18
-12 -22 -10 -7 -10 -9 0 -9 7 0 12 -13 12 -30 0 -27 -3 -30 -33 -30 -27 0 -35
5 -47 33 -7 17 -13 38 -13 45 1 6 -3 12 -8 12 -5 0 -15 11 -21 25 -12 26 -24
30 -47 16 -10 -7 -14 -27 -13 -67 0 -36 -4 -62 -11 -66 -20 -13 -87 -9 -89 5
-2 20 -4 30 -19 80 l-13 48 -61 -7 c-72 -8 -84 -14 -27 -14 31 0 42 -4 42 -15
0 -8 -8 -15 -17 -15 -14 0 -15 -2 -4 -9 11 -7 11 -15 3 -39 -6 -17 -8 -33 -5
-36 4 -3 -19 -6 -50 -6 l-57 0 0 70 0 70 -67 -1 c-38 -1 -58 -4 -45 -6 31 -6
28 -31 -5 -36 l-28 -4 28 -2 c26 -1 27 -3 27 -51 0 -49 -1 -50 -30 -50 l-30 0
0 74 0 73 -42 6 c-24 3 -44 4 -47 2 -2 -2 -3 -37 -2 -78 l1 -74 -121 -6 c-67
-4 -173 -7 -235 -7 -62 0 -119 -3 -128 -6 -48 -18 8 -24 240 -24 229 0 256 -2
250 -16 -3 -9 -6 -58 -6 -110 l0 -94 -27 -1 -28 -1 30 -8 30 -7 -35 -6 c-19
-3 -76 -8 -126 -11 -102 -5 -155 -23 -179 -59 -14 -22 -14 -31 -4 -66 21 -71
46 -86 157 -89 77 -3 122 2 217 23 66 15 129 28 140 30 11 3 191 9 399 14 228
6 383 14 389 20 7 7 6 12 -4 15 -23 7 -318 16 -547 16 l-212 0 -55 53 c-30 29
-55 56 -55 59 0 4 10 9 23 11 l22 4 -22 2 c-22 1 -23 5 -23 81 l0 80 30 0 c33
0 43 -25 13 -33 -17 -4 -17 -5 0 -6 15 -1 17 -12 17 -82 0 -79 1 -81 23 -75
12 3 32 6 45 6 21 0 22 4 22 75 l0 75 30 0 c35 0 36 -5 15 -83 -19 -72 -19
-67 10 -67 19 0 26 7 31 28 11 49 13 52 48 52 31 0 36 -4 42 -27 11 -52 12
-53 59 -53 25 0 45 2 45 5 0 3 -7 35 -16 71 -14 56 -15 67 -3 75 11 7 11 9 -3
9 -11 0 -18 8 -18 20 0 21 10 24 48 14 21 -6 22 -11 22 -100 0 -94 0 -94 25
-94 25 0 25 1 25 84 0 58 4 86 13 89 10 4 10 6 0 6 -7 1 -13 6 -13 12 0 27 28
-5 80 -92 39 -65 63 -95 78 -97 20 -3 21 2 24 70 3 67 5 73 26 76 21 3 22 0
22 -72 l0 -76 78 0 c121 0 162 38 162 152 0 32 3 37 28 41 l27 4 -27 2 c-42 2
-37 31 5 31 28 0 35 -5 45 -33 7 -18 12 -70 12 -115 l0 -82 45 0 45 0 0 85 c0
54 6 99 16 125 15 37 19 40 58 41 77 2 341 26 297 28 -23 0 -108 -4 -188 -10
-79 -6 -147 -8 -150 -5 -21 20 42 28 333 42 335 15 404 21 267 23 -46 0 -83 5
-83 10 0 5 -8 8 -17 6 -10 -2 -120 -6 -245 -9 l-227 -5 13 37 c11 32 18 38 52
43 37 6 37 6 7 8 -17 0 -35 6 -38 11 -3 6 -17 10 -30 10 -20 0 -27 -9 -41 -55
-16 -51 -20 -55 -49 -55 -29 0 -33 4 -49 55 l-17 55 -45 0 c-49 0 -50 -1 -29
-60 19 -53 19 -60 1 -60 -8 0 -17 13 -21 30 -7 31 -50 74 -85 85 -11 4 -18 10
-16 14 3 4 -4 8 -15 8 -10 1 -19 -3 -19 -9z m40 -94 c14 -35 14 -34 -20 -34
-27 0 -30 3 -30 30 0 39 36 42 50 4z m270 -68 c0 -15 -14 -35 -21 -30 -15 9
-10 34 6 34 8 0 15 -2 15 -4z m-262 -33 c-2 -22 -9 -29 -30 -31 -25 -3 -28 0
-28 27 0 28 3 31 31 31 27 0 30 -3 27 -27z m152 7 c0 -16 -7 -20 -35 -20 -28
0 -35 4 -35 20 0 16 7 20 35 20 28 0 35 -4 35 -20z m-580 -21 c0 -29 -1 -30
-42 -27 -35 2 -44 7 -46 25 -3 22 10 28 66 32 18 1 22 -4 22 -30z m180 -6 l0
-38 -20 30 c-25 38 -25 45 0 45 16 0 20 -7 20 -37z m100 -18 c0 -50 -2 -55
-22 -55 -17 0 -19 3 -10 9 11 7 11 9 -2 14 -11 4 -16 19 -16 47 0 36 2 40 25
40 24 0 25 -3 25 -55z m-500 34 c0 -7 -5 -29 -12 -50 -10 -35 -14 -39 -45 -39
-43 0 -43 19 0 22 l32 1 -32 4 c-30 4 -33 7 -33 39 0 34 0 34 45 34 27 0 45
-5 45 -11z m-192 -6 c-10 -2 -26 -2 -35 0 -10 3 -2 5 17 5 19 0 27 -2 18 -5z
m469 -25 c-3 -8 -6 -5 -6 6 -1 11 2 17 5 13 3 -3 4 -12 1 -19z m-224 -25 c5
-27 3 -33 -11 -33 -15 0 -15 2 -2 10 8 5 10 10 4 10 -7 0 -9 11 -6 25 5 31 7
30 15 -12z m597 -10 c0 -19 -5 -23 -30 -23 -25 0 -30 4 -30 23 0 20 5 24 30
24 25 0 30 -4 30 -24z m-585 -43 c4 -6 -5 -10 -20 -10 -15 0 -24 4 -20 10 3 6
12 10 20 10 8 0 17 -4 20 -10z m585 -21 c0 -41 -16 -69 -40 -69 -17 0 -20 7
-20 50 0 49 1 50 30 50 27 0 30 -3 30 -31z"/>
<path d="M2323 2083 c9 -2 25 -2 35 0 9 3 1 5 -18 5 -19 0 -27 -2 -17 -5z"/>
<path d="M1258 2063 c6 -2 18 -2 25 0 6 3 1 5 -13 5 -14 0 -19 -2 -12 -5z"/>
<path d="M2498 2063 c7 -3 16 -2 19 1 4 3 -2 6 -13 5 -11 0 -14 -3 -6 -6z"/>
<path d="M548 2053 c7 -3 16 -2 19 1 4 3 -2 6 -13 5 -11 0 -14 -3 -6 -6z"/>
<path d="M2273 2033 c9 -2 23 -2 30 0 6 3 -1 5 -18 5 -16 0 -22 -2 -12 -5z"/>
<path d="M1248 2023 c7 -3 16 -2 19 1 4 3 -2 6 -13 5 -11 0 -14 -3 -6 -6z"/>
<path d="M1048 2013 c12 -2 30 -2 40 0 9 3 -1 5 -23 4 -22 0 -30 -2 -17 -4z"/>
<path d="M2665 2000 c-3 -5 1 -10 10 -10 9 0 13 5 10 10 -3 6 -8 10 -10 10 -2
0 -7 -4 -10 -10z"/>
<path d="M250 1940 c0 -6 7 -13 15 -17 24 -9 27 1 5 15 -13 8 -20 8 -20 2z"/>
<path d="M2604 1914 c-18 -14 -18 -14 6 -3 31 14 36 19 24 19 -6 0 -19 -7 -30
-16z"/>
<path d="M2467 1913 c18 -2 50 -2 70 0 21 2 7 4 -32 4 -38 0 -55 -2 -38 -4z"/>
<path d="M2758 1896 c-57 -34 -60 -43 -4 -12 55 29 51 31 90 -44 46 -89 69
-211 70 -375 1 -144 0 -152 -27 -210 -33 -69 -72 -115 -101 -116 -17 -1 -18
-2 -3 -6 50 -13 124 80 146 185 23 112 4 340 -38 453 -23 60 -76 150 -88 148
-5 0 -25 -11 -45 -23z"/>
<path d="M210 1858 c-41 -28 -67 -63 -79 -105 -7 -26 -7 -31 5 -26 8 3 11 9 8
14 -10 17 29 80 64 104 29 20 39 22 56 13 27 -15 226 -25 346 -17 90 5 87 6
-55 8 -150 2 -266 12 -296 25 -9 4 -29 -3 -49 -16z"/>
<path d="M2358 1843 c7 -3 16 -2 19 1 4 3 -2 6 -13 5 -11 0 -14 -3 -6 -6z"/>
<path d="M2278 1833 c7 -3 16 -2 19 1 4 3 -2 6 -13 5 -11 0 -14 -3 -6 -6z"/>
<path d="M428 1823 c6 -2 18 -2 25 0 6 3 1 5 -13 5 -14 0 -19 -2 -12 -5z"/>
<path d="M2158 1823 c12 -2 30 -2 40 0 9 3 -1 5 -23 4 -22 0 -30 -2 -17 -4z"/>
<path d="M358 1813 c7 -3 16 -2 19 1 4 3 -2 6 -13 5 -11 0 -14 -3 -6 -6z"/>
<path d="M263 1803 c9 -2 23 -2 30 0 6 3 -1 5 -18 5 -16 0 -22 -2 -12 -5z"/>
<path d="M659 1806 c-2 -2 -33 -7 -69 -11 -36 -4 -72 -11 -80 -16 -14 -8 35
-3 68 7 9 3 11 -2 7 -16 -8 -25 9 -56 34 -63 31 -8 56 17 56 54 0 27 5 34 25
40 24 7 23 7 -6 8 -17 1 -33 -1 -35 -3z m-3 -30 c15 -12 17 -18 8 -33 -14 -23
-53 -23 -67 -1 -8 12 -7 21 2 32 17 20 32 20 57 2z"/>
<path d="M2386 1784 c-22 -21 -20 -47 4 -69 41 -37 102 24 64 66 -21 23 -47
24 -68 3z m58 -10 c20 -19 20 -28 1 -44 -31 -26 -82 13 -56 44 17 20 35 20 55
0z"/>
<path d="M2501 1796 c2 -2 22 -6 44 -9 28 -5 34 -4 20 3 -19 8 -73 14 -64 6z"/>
<path d="M423 1773 c9 -2 23 -2 30 0 6 3 -1 5 -18 5 -16 0 -22 -2 -12 -5z"/>
<path d="M303 1763 c9 -2 25 -2 35 0 9 3 1 5 -18 5 -19 0 -27 -2 -17 -5z"/>
<path d="M2637 1749 c7 -7 15 -10 18 -7 3 3 -2 9 -12 12 -14 6 -15 5 -6 -5z"/>
<path d="M263 1743 c20 -2 54 -2 75 0 20 2 3 4 -38 4 -41 0 -58 -2 -37 -4z"/>
<path d="M2685 1710 c4 -6 11 -8 16 -5 14 9 11 15 -7 15 -8 0 -12 -5 -9 -10z"/>
<path d="M283 1683 c34 -4 37 -6 25 -21 -9 -13 -7 -12 10 2 12 11 22 21 22 23
0 1 -21 2 -47 1 -45 -1 -46 -2 -10 -5z"/>
<path d="M112 1643 c1 -37 1 -37 5 -6 3 19 11 34 21 36 12 3 10 5 -5 6 -20 1
-23 -3 -21 -36z"/>
<path d="M2855 1660 c-16 -7 -17 -9 -3 -9 9 -1 20 4 23 9 7 11 7 11 -20 0z"/>
<path d="M518 1643 c12 -2 30 -2 40 0 9 3 -1 5 -23 4 -22 0 -30 -2 -17 -4z"/>
<path d="M2808 1643 c7 -3 16 -2 19 1 4 3 -2 6 -13 5 -11 0 -14 -3 -6 -6z"/>
<path d="M438 1633 c7 -3 16 -2 19 1 4 3 -2 6 -13 5 -11 0 -14 -3 -6 -6z"/>
<path d="M2768 1633 c7 -3 16 -2 19 1 4 3 -2 6 -13 5 -11 0 -14 -3 -6 -6z"/>
<path d="M111 1528 c0 -43 2 -78 7 -78 4 0 6 24 4 52 -5 95 -9 104 -11 26z"/>
<path d="M987 1579 c7 -7 15 -10 18 -7 3 3 -2 9 -12 12 -14 6 -15 5 -6 -5z"/>
<path d="M1028 1563 c7 -3 16 -2 19 1 4 3 -2 6 -13 5 -11 0 -14 -3 -6 -6z"/>
<path d="M1317 1553 c18 -2 50 -2 70 0 21 2 7 4 -32 4 -38 0 -55 -2 -38 -4z"/>
<path d="M1628 1543 c12 -2 32 -2 45 0 12 2 2 4 -23 4 -25 0 -35 -2 -22 -4z"/>
<path d="M1748 1532 c30 -9 50 -20 46 -24 -4 -5 10 -8 32 -7 38 0 37 1 -30 25
-39 13 -77 24 -85 23 -9 0 8 -8 37 -17z"/>
<path d="M2771 1474 c0 -11 3 -14 6 -6 3 7 2 16 -1 19 -3 4 -6 -2 -5 -13z"/>
<path d="M1313 1463 c15 -2 37 -2 50 0 12 2 0 4 -28 4 -27 0 -38 -2 -22 -4z"/>
<path d="M1213 1453 c15 -2 37 -2 50 0 12 2 0 4 -28 4 -27 0 -38 -2 -22 -4z"/>
<path d="M1128 1443 c12 -2 30 -2 40 0 9 3 -1 5 -23 4 -22 0 -30 -2 -17 -4z"/>
<path d="M1063 1433 c9 -2 23 -2 30 0 6 3 -1 5 -18 5 -16 0 -22 -2 -12 -5z"/>
<path d="M1710 1430 c-19 -4 -68 -13 -108 -20 -59 -10 -75 -16 -82 -34 -5 -11
-24 -63 -42 -113 -18 -51 -36 -93 -40 -93 -5 0 -8 59 -8 130 l0 130 -26 0 -25
0 3 -119 c2 -66 1 -118 -2 -116 -3 2 -32 55 -65 119 -54 105 -63 116 -87 116
l-28 0 0 -163 0 -164 -157 -6 c-87 -4 -234 -8 -328 -8 -93 -1 -219 -4 -280 -8
-108 -6 -110 -6 -113 -31 -3 -32 34 -94 51 -83 9 5 7 8 -5 11 -21 4 -34 40
-19 55 7 7 152 12 431 15 384 4 420 3 420 -12 0 -15 -38 -16 -412 -17 -227 0
-408 -2 -403 -5 6 -2 202 -5 438 -6 l427 -3 0 23 c0 22 3 23 58 20 48 -3 59
-6 67 -26 14 -33 60 -27 60 8 0 23 4 25 55 28 51 3 57 1 82 -29 l26 -31 109
21 c59 12 112 26 118 32 5 5 39 9 76 9 66 0 67 0 73 -30 5 -25 10 -30 36 -30
26 0 31 5 37 30 5 29 8 30 59 30 70 0 71 -19 2 -22 l-53 -2 50 -3 c30 -3 53
-10 58 -19 11 -19 67 -19 68 1 1 8 3 20 4 25 1 6 3 15 4 20 1 6 96 10 264 10
145 0 266 3 270 6 3 3 3 12 0 20 -4 10 -23 14 -63 14 -101 0 -271 13 -260 20
12 7 32 71 22 68 -4 -1 -17 3 -29 10 -33 18 -73 -3 -73 -39 0 -16 7 -32 18
-38 13 -8 -3 -10 -60 -11 l-76 0 7 28 c6 22 15 28 47 33 l39 6 -37 2 c-21 0
-38 6 -38 11 0 6 11 58 25 116 14 58 25 110 25 115 0 5 -11 9 -25 9 -20 0 -25
-6 -31 -37 -20 -110 -41 -203 -45 -208 -4 -3 -19 50 -35 117 -29 122 -29 123
-58 123 -29 0 -30 0 -61 -130 -35 -145 -30 -148 -63 35 l-17 95 -48 3 c-26 2
-47 -1 -47 -6 0 -5 11 -60 25 -122 14 -62 25 -117 25 -122 0 -4 -14 -8 -31 -8
-26 0 -30 3 -24 18 21 56 18 65 -56 155 -40 48 -75 87 -78 86 -3 -1 -22 -4
-41 -9z m413 -242 l13 -66 -33 -4 c-26 -3 -32 -1 -28 10 3 7 5 20 5 28 0 8 8
14 18 14 13 0 14 2 3 9 -10 6 -12 19 -7 46 4 20 9 35 11 33 2 -2 10 -33 18
-70z m-395 45 c16 -14 18 -23 12 -40 -8 -20 -17 -23 -59 -23 -56 0 -62 5 -50
38 15 39 65 52 97 25z m-438 -66 c0 -5 9 -22 21 -38 l20 -29 -40 0 -41 0 0 68
0 67 20 -30 c11 -16 20 -34 20 -38z m1166 12 c10 -16 -29 -51 -49 -43 -25 9
-33 45 -12 60 18 14 47 5 61 -17z m-505 -41 c7 -28 7 -28 -46 -28 l-53 0 11
30 c10 27 16 31 46 28 28 -2 36 -8 42 -30z m-463 -9 l24 -29 -36 0 c-33 0 -36
2 -36 30 0 38 18 38 48 -1z"/>
<path d="M1008 1423 c6 -2 18 -2 25 0 6 3 1 5 -13 5 -14 0 -19 -2 -12 -5z"/>
<path d="M958 1413 c6 -2 18 -2 25 0 6 3 1 5 -13 5 -14 0 -19 -2 -12 -5z"/>
<path d="M250 1400 c8 -5 22 -9 30 -9 10 0 8 3 -5 9 -27 12 -43 12 -25 0z"/>
<path d="M893 1403 c9 -2 25 -2 35 0 9 3 1 5 -18 5 -19 0 -27 -2 -17 -5z"/>
<path d="M823 1393 c9 -2 25 -2 35 0 9 3 1 5 -18 5 -19 0 -27 -2 -17 -5z"/>
<path d="M308 1383 c7 -3 16 -2 19 1 4 3 -2 6 -13 5 -11 0 -14 -3 -6 -6z"/>
<path d="M748 1383 c12 -2 30 -2 40 0 9 3 -1 5 -23 4 -22 0 -30 -2 -17 -4z"/>
<path d="M120 1370 c0 -5 11 -45 25 -89 23 -73 27 -79 48 -73 22 7 22 7 1 10
-17 2 -25 16 -38 61 -19 67 -19 74 -6 66 17 -10 11 0 -10 18 -11 9 -20 13 -20
7z"/>
<path d="M353 1373 c9 -2 23 -2 30 0 6 3 -1 5 -18 5 -16 0 -22 -2 -12 -5z"/>
<path d="M653 1373 c15 -2 37 -2 50 0 12 2 0 4 -28 4 -27 0 -38 -2 -22 -4z"/>
<path d="M458 1363 c28 -2 76 -2 105 0 28 2 5 3 -53 3 -58 0 -81 -1 -52 -3z"/>
<path d="M2705 1300 c-3 -5 1 -10 10 -10 9 0 13 5 10 10 -3 6 -8 10 -10 10 -2
0 -7 -4 -10 -10z"/>
<path d="M2778 1303 c7 -3 16 -2 19 1 4 3 -2 6 -13 5 -11 0 -14 -3 -6 -6z"/>
<path d="M307 1270 c18 -19 34 -32 36 -29 2 2 -12 17 -32 33 l-36 30 32 -34z"/>
<path d="M2658 1223 c7 -3 16 -2 19 1 4 3 -2 6 -13 5 -11 0 -14 -3 -6 -6z"/>
<path d="M602 1204 c-38 -26 -19 -83 29 -84 20 0 49 31 49 53 0 14 -35 47 -50
47 -3 0 -16 -7 -28 -16z m62 -23 c8 -13 -3 -38 -20 -45 -37 -14 -64 26 -38 55
16 18 44 13 58 -10z"/>
<path d="M2520 1210 c-27 -6 -29 -8 -10 -8 14 -1 43 3 65 7 33 7 35 9 10 9
-16 -1 -46 -4 -65 -8z"/>
<path d="M498 1173 c12 -2 30 -2 40 0 9 3 -1 5 -23 4 -22 0 -30 -2 -17 -4z"/>
<path d="M201 1155 c28 -43 53 -65 73 -64 20 1 20 1 1 6 -11 3 -35 21 -54 41
-18 21 -27 28 -20 17z"/>
<path d="M383 1163 c9 -2 23 -2 30 0 6 3 -1 5 -18 5 -16 0 -22 -2 -12 -5z"/>
<path d="M288 1153 c6 -2 18 -2 25 0 6 3 1 5 -13 5 -14 0 -19 -2 -12 -5z"/>
<path d="M1143 1143 c9 -2 23 -2 30 0 6 3 -1 5 -18 5 -16 0 -22 -2 -12 -5z"/>
<path d="M1013 1133 c9 -2 23 -2 30 0 6 3 -1 5 -18 5 -16 0 -22 -2 -12 -5z"/>
<path d="M2618 1133 c29 -2 74 -2 100 0 26 2 2 3 -53 3 -55 0 -76 -1 -47 -3z"/>
<path d="M918 1123 c6 -2 18 -2 25 0 6 3 1 5 -13 5 -14 0 -19 -2 -12 -5z"/>
<path d="M748 1103 c7 -3 16 -2 19 1 4 3 -2 6 -13 5 -11 0 -14 -3 -6 -6z"/>
<path d="M2731 1026 c-22 -35 -188 -186 -267 -242 -29 -21 -62 -34 -96 -38
-62 -9 -88 -21 -88 -43 0 -17 -13 -30 -78 -73 -24 -16 -51 -26 -60 -23 -13 3
-14 2 -4 -4 9 -7 2 -14 -26 -27 -32 -15 -54 -17 -113 -11 -64 6 -85 3 -154
-20 -44 -14 -102 -30 -130 -35 l-50 -9 56 4 c31 3 86 14 123 25 47 15 91 21
149 20 91 -2 98 0 179 47 31 18 59 33 62 33 3 0 6 -76 6 -168 l0 -168 165 0
165 1 0 272 0 272 61 58 c64 61 135 150 126 159 -2 3 -14 -11 -26 -30z m-354
-558 c-3 -8 -6 -5 -6 6 -1 11 2 17 5 13 3 -3 4 -12 1 -19z"/>
<path d="M2653 1043 c9 -2 23 -2 30 0 6 3 -1 5 -18 5 -16 0 -22 -2 -12 -5z"/>
<path d="M2563 1033 c9 -2 23 -2 30 0 6 3 -1 5 -18 5 -16 0 -22 -2 -12 -5z"/>
<path d="M1908 1023 c6 -2 18 -2 25 0 6 3 1 5 -13 5 -14 0 -19 -2 -12 -5z"/>
<path d="M2478 1023 c6 -2 18 -2 25 0 6 3 1 5 -13 5 -14 0 -19 -2 -12 -5z"/>
<path d="M2373 1013 c9 -2 25 -2 35 0 9 3 1 5 -18 5 -19 0 -27 -2 -17 -5z"/>
<path d="M2648 1013 c12 -2 32 -2 45 0 12 2 2 4 -23 4 -25 0 -35 -2 -22 -4z"/>
<path d="M2518 1003 c7 -3 16 -2 19 1 4 3 -2 6 -13 5 -11 0 -14 -3 -6 -6z"/>
<path d="M573 986 c-4 -5 -2 -7 3 -3 5 3 9 -12 9 -33 0 -36 -2 -39 -30 -43
-16 -2 -2 -3 32 -4 72 0 100 19 89 61 -6 24 -4 25 51 29 32 2 11 3 -45 3 -57
-1 -106 -5 -109 -10z m83 -10 c15 -12 17 -18 8 -33 -14 -23 -53 -23 -67 -1 -8
12 -7 21 2 32 17 20 32 20 57 2z"/>
<path d="M2387 982 c-22 -24 -21 -45 1 -65 22 -20 43 -22 60 -5 7 7 37 11 69
11 l58 -2 -44 9 c-24 5 -48 7 -52 4 -5 -3 -9 3 -9 14 0 22 -30 52 -52 52 -8 0
-22 -8 -31 -18z m57 -8 c20 -19 20 -28 1 -44 -31 -26 -82 13 -56 44 17 20 35
20 55 0z"/>
<path d="M493 983 c9 -2 25 -2 35 0 9 3 1 5 -18 5 -19 0 -27 -2 -17 -5z"/>
<path d="M2568 943 c6 -2 18 -2 25 0 6 3 1 5 -13 5 -14 0 -19 -2 -12 -5z"/>
<path d="M420 912 c20 -18 40 -27 50 -24 12 5 11 7 -5 10 -11 2 -27 10 -35 17
-33 27 -43 25 -10 -3z"/>
<path d="M523 933 c9 -2 25 -2 35 0 9 3 1 5 -18 5 -19 0 -27 -2 -17 -5z"/>
<path d="M2290 860 c-18 -12 -2 -12 25 0 13 6 15 9 5 9 -8 0 -22 -4 -30 -9z"/>
<path d="M2383 863 c26 -2 68 -2 95 0 26 2 4 3 -48 3 -52 0 -74 -1 -47 -3z"/>
<path d="M470 578 l0 -283 165 0 165 0 0 182 c0 101 3 183 6 183 4 0 50 -14
102 -30 52 -17 100 -29 106 -26 6 2 2 5 -9 6 l-20 1 20 10 c16 8 14 8 -10 5
-35 -6 -188 41 -180 55 4 5 -1 6 -9 3 -18 -7 -171 68 -256 125 -30 21 -61 41
-67 45 -10 6 -13 -52 -13 -276z m67 -170 c-3 -8 -6 -5 -6 6 -1 11 2 17 5 13 3
-3 4 -12 1 -19z"/>
<path d="M650 856 c0 -2 8 -10 18 -17 15 -13 16 -12 3 4 -13 16 -21 21 -21 13z"/>
<path d="M573 843 c9 -2 23 -2 30 0 6 3 -1 5 -18 5 -16 0 -22 -2 -12 -5z"/>
<path d="M2189 803 c-13 -16 -12 -17 4 -4 16 13 21 21 13 21 -2 0 -10 -8 -17
-17z"/>
<path d="M623 803 c9 -2 23 -2 30 0 6 3 -1 5 -18 5 -16 0 -22 -2 -12 -5z"/>
<path d="M688 753 c12 -2 30 -2 40 0 9 3 -1 5 -23 4 -22 0 -30 -2 -17 -4z"/>
<path d="M790 756 c0 -2 7 -7 16 -10 8 -3 12 -2 9 4 -6 10 -25 14 -25 6z"/>
<path d="M824 729 c-3 -5 6 -9 20 -9 31 0 34 6 6 13 -11 3 -23 1 -26 -4z"/>
<path d="M865 680 c-4 -6 12 -10 38 -10 25 0 60 -2 78 -5 28 -4 30 -4 9 3 -44
15 -119 22 -125 12z"/>
<path d="M1119 613 c26 -3 31 -7 20 -14 -9 -6 4 -9 41 -8 45 0 51 2 32 10 -13
5 -47 11 -75 13 -29 2 -37 1 -18 -1z"/>
<path d="M1923 613 c9 -2 23 -2 30 0 6 3 -1 5 -18 5 -16 0 -22 -2 -12 -5z"/>
<path d="M1030 600 c0 -4 13 -10 29 -12 17 -2 28 -1 26 3 -7 10 -55 18 -55 9z"/>
<path d="M1253 583 c9 -2 25 -2 35 0 9 3 1 5 -18 5 -19 0 -27 -2 -17 -5z"/>
<path d="M1731 586 c2 -2 27 -6 54 -9 34 -4 42 -3 25 3 -25 8 -87 13 -79 6z"/>
<path d="M1348 573 c12 -2 30 -2 40 0 9 3 -1 5 -23 4 -22 0 -30 -2 -17 -4z"/>
<path d="M1470 560 c31 -4 76 -4 100 0 34 6 20 7 -55 7 -85 0 -92 -1 -45 -7z"/>
<path d="M1223 553 c9 -2 23 -2 30 0 6 3 -1 5 -18 5 -16 0 -22 -2 -12 -5z"/>
<path d="M1638 553 c7 -3 16 -2 19 1 4 3 -2 6 -13 5 -11 0 -14 -3 -6 -6z"/>
<path d="M1305 540 c40 -9 112 -13 104 -6 -2 2 -35 6 -74 9 -54 4 -61 4 -30
-3z"/>
<path d="M1578 543 c7 -3 16 -2 19 1 4 3 -2 6 -13 5 -11 0 -14 -3 -6 -6z"/>
<path d="M1443 523 c15 -2 37 -2 50 0 12 2 0 4 -28 4 -27 0 -38 -2 -22 -4z"/>
<path d="M1558 513 c7 -3 16 -2 19 1 4 3 -2 6 -13 5 -11 0 -14 -3 -6 -6z"/>
</g>
</svg>
